<?xml version="1.0" encoding="UTF-8" standalone="no"?>
<svg
   xmlns:dc="http://purl.org/dc/elements/1.1/"
   xmlns:cc="http://creativecommons.org/ns#"
   xmlns:rdf="http://www.w3.org/1999/02/22-rdf-syntax-ns#"
   xmlns:svg="http://www.w3.org/2000/svg"
   xmlns="http://www.w3.org/2000/svg"
   xmlns:sodipodi="http://sodipodi.sourceforge.net/DTD/sodipodi-0.dtd"
   xmlns:inkscape="http://www.inkscape.org/namespaces/inkscape"
   viewBox="0 0 32 32"
   version="1.1"
   id="svg13"
   sodipodi:docname="icon_anchor.svg"
   inkscape:version="0.92.4 (5da689c313, 2019-01-14)">
  <metadata
     id="metadata19">
    <rdf:RDF>
      <cc:Work
         rdf:about="">
        <dc:format>image/svg+xml</dc:format>
        <dc:type
           rdf:resource="http://purl.org/dc/dcmitype/StillImage" />
      </cc:Work>
    </rdf:RDF>
  </metadata>
  <defs
     id="defs17" />
  <sodipodi:namedview
     pagecolor="#ffffff"
     bordercolor="#666666"
     borderopacity="1"
     objecttolerance="10"
     gridtolerance="10"
     guidetolerance="10"
     inkscape:pageopacity="0"
     inkscape:pageshadow="2"
     inkscape:window-width="2160"
     inkscape:window-height="1311"
     id="namedview15"
     showgrid="false"
     inkscape:zoom="7.375"
     inkscape:cx="13.966102"
     inkscape:cy="16"
     inkscape:window-x="0"
     inkscape:window-y="42"
     inkscape:window-maximized="1"
     inkscape:current-layer="svg13" />
  <title
     id="title2" />
  <g
     data-name="anchor fm media social"
     id="anchor_fm_media_social"
     style="fill:#8940fa;fill-opacity:1">
    <path
       d="M14,15H10.72A2,2,0,0,0,9,14a2,2,0,0,0,0,4,2,2,0,0,0,1.72-1H14a1,1,0,0,0,0-2Z"
       id="path4"
       style="fill:#8940fa;fill-opacity:1" />
    <path
       d="M16.5,20.33a5,5,0,0,0,0-8.66,1,1,0,0,0-1,1.73,3,3,0,0,1,0,5.2A1,1,0,0,0,15.14,20a1,1,0,0,0,.86.5A1,1,0,0,0,16.5,20.33Z"
       id="path6"
       style="fill:#8940fa;fill-opacity:1" />
    <path
       d="M17.43,23.23a8,8,0,0,0,0-14.46,1,1,0,0,0-.86,1.81,6,6,0,0,1,0,10.84A1,1,0,0,0,17,23.33,1.08,1.08,0,0,0,17.43,23.23Z"
       id="path8"
       style="fill:#8940fa;fill-opacity:1" />
    <path
       d="M18.4,5.92a1,1,0,1,0-.8,1.83,9,9,0,0,1,0,16.5,1,1,0,0,0-.52,1.32,1,1,0,0,0,.92.6,1,1,0,0,0,.4-.09,11,11,0,0,0,0-20.16Z"
       id="path10"
       style="fill:#8940fa;fill-opacity:1" />
  </g>
</svg>
